<svg width="153" height="171" viewBox="0 0 153 171" fill="none" xmlns="http://www.w3.org/2000/svg">
<path d="M56.8667 11.4098L46.4667 21.9431L46.0667 43.0098L45.6667 64.0764L33.9333 68.8764C27.4 71.5431 21.2667 74.6098 20.0667 75.8098C18.2 77.6764 17.9333 82.0764 17.9333 108.343V138.743L9.53333 147.676C-3.53334 161.276 -1.4 163.676 12.0667 150.343L23 139.41H30.6C36.6 139.41 38.2 139.81 38.7333 141.676C39.1333 143.01 39.4 142.076 39.5333 139.676C39.6667 136.876 40.3333 135.41 41.6667 135.41C42.7333 135.41 43.6667 136.343 43.6667 137.41C43.6667 138.743 45 139.41 48.2 139.41C52.2 139.41 53.9333 140.743 62.3333 150.076L71.9333 160.743H56.2H40.4667L32.0667 152.476L23.6667 144.21L15.4 152.21C10.7333 156.743 5.8 160.876 4.33333 161.543C1.93333 162.476 2.06666 162.61 5.4 163.143C7.93333 163.41 10.3333 162.476 13.1333 160.076C16.4667 157.41 17.6667 157.01 19.1333 158.21C20.3333 159.143 23 159.41 26.3333 158.876C31.1333 158.076 32.2 158.61 39.2667 164.343L47 170.743H61.6667C75.1333 170.743 76.7333 170.476 80.7333 167.543C84.0667 165.01 85.4 164.61 86.6 165.81C88.6 167.81 93.2667 167.943 95.2667 165.943C96.4667 164.743 97.9333 165.143 101 167.41C106.333 171.276 111.667 170.21 111.667 165.41C111.667 163.543 112.067 162.076 112.733 161.943C113.267 161.943 121.133 161.676 130.333 161.543C139.533 161.276 148.2 160.61 149.533 160.076C152.067 159.01 152.067 158.876 149.533 157.943C148.2 157.41 138.333 156.876 127.667 156.876L108.333 156.743L90.7333 139.143L73 121.41L63.9333 130.476C57.4 137.01 54.4667 139.01 53.4 137.943C52.3333 136.876 54.7333 133.543 62.0667 125.943L72.0667 115.41H81.8C90.7333 115.41 91.6667 115.676 91.6667 117.943C91.6667 119.41 92.3333 121.01 93.1333 121.543C94.3333 122.21 94.4667 120.743 94.0667 116.21C93.4 110.343 93.5333 110.076 96.6 110.076C99.2667 110.076 99.8 110.61 99.2667 112.743C98.6 115.143 99.2667 115.41 104.2 115.41C109.533 115.41 110.333 116.076 130.333 136.076C141.667 147.41 151.4 156.743 151.933 156.743C154.6 156.743 150.067 150.876 137.8 138.21C126.867 126.876 124.867 124.21 126.733 123.543C128.6 122.876 127.133 121.676 121 118.743C116.6 116.61 112.2 114.076 111.4 113.143C110.6 112.21 108.333 111.41 106.333 111.41C103.667 111.41 102.467 110.61 101.933 108.61C100.6 103.676 104.6 104.476 114.6 111.143C125.133 118.21 130.333 121.143 130.333 120.21C130.333 118.21 120.467 110.61 112.867 106.743L103.933 102.21L97.9333 104.476C94.6 105.81 91.4 107.276 90.8667 107.81C88.7333 109.81 88.0667 108.476 88.2 102.876C88.3333 97.0098 88.3333 97.0098 96.4667 93.0098L104.6 89.0098L116.467 96.8764C123 101.143 128.867 104.743 129.667 104.743C132.6 104.743 119.533 94.4764 111.8 90.7431C102.867 86.6098 103.667 86.4764 90.0667 92.0764C88.2 92.8764 87.9333 92.0764 88.3333 87.2764C88.7333 81.6764 89 81.4098 96.7333 77.5431L104.867 73.5431L113.933 79.5431C129.133 89.6764 130.333 90.4764 130.333 89.5431C130.333 87.5431 119.933 79.2764 112.733 75.4098L104.733 71.1431L97.4 73.9431C93.4 75.5431 89.6667 76.7431 89.1333 76.7431C88.7333 76.7431 88.3333 74.2098 88.3333 71.2764C88.3333 65.8098 88.4667 65.6764 96.4667 61.6764L104.6 57.6764L114.467 64.3431C119.933 67.9431 125.8 71.8098 127.667 72.7431C130.467 74.2098 130.333 73.6764 126.333 69.4098C123.8 66.7431 117.8 62.4764 113 60.0764L104.333 55.6764L96.4667 58.8764C92.0667 60.6098 88.3333 62.0764 88.2 62.0764C88.0667 62.0764 88.0667 59.5431 88.2 56.3431C88.6 51.0098 89 50.6098 96.6 46.4764L104.467 42.2098L116.333 50.0764C134.2 62.0764 135.4 60.7431 118.467 47.6764L109.933 41.0098L110.2 31.1431C110.467 23.2764 110.067 20.6098 108.067 18.4764C105.267 15.1431 74.4667 0.743094 70.3333 0.743094C68.4667 0.743094 63.5333 4.60976 56.8667 11.4098ZM95.4 15.8098L106.333 20.7431L106.2 29.1431V37.4098L95.2667 42.7431L84.3333 48.0764V79.6764L84.4667 111.143L77.4 111.676L70.3333 112.076V60.3431C70.3333 26.2098 69.9333 8.87643 69 9.40976C68.2 9.94309 67.6667 22.7431 67.6667 43.5431C67.6667 65.5431 67.2667 76.7431 66.3333 76.7431C65.4 76.7431 65 66.2098 65.2667 44.8764C65.5333 19.4098 65.2667 13.2764 64.0667 14.3431C62.7333 15.4098 62.3333 22.4764 62.3333 41.5431C62.3333 57.9431 61.8 67.4098 61 67.4098C60.2 67.4098 59.6667 58.2098 59.6667 42.6098C59.6667 26.4764 59.2667 18.2098 58.3333 18.7431C57.5333 19.2764 57 29.4098 57 44.8764C57 60.7431 56.4667 70.0764 55.6667 70.0764C54.8667 70.0764 54.3333 61.2764 54.3333 46.3431C54.2 29.4098 53.8 23.4098 52.8667 25.1431C52.0667 26.6098 51.6667 35.2764 51.9333 47.4098C52.2 60.3431 51.8 67.2764 51 67.0098C50.2 66.7431 49.5333 57.8098 49.2667 45.1431L49 23.6764L59.6667 13.8098L70.4667 3.94309L77.4 7.40976C81.2667 9.27643 89.2667 13.0098 95.4 15.8098ZM55 74.2098L63.6667 79.6764V99.9431V120.21L55.6667 128.076C50.3333 133.41 47.6667 135.276 47.6667 133.676C47.6667 132.476 46.8667 131.41 45.8 131.41C44.7333 131.41 43.6667 130.743 43.4 129.943C42.6 127.543 37 131.01 37 133.81C37 135.676 36.7333 135.81 35.6667 134.076C34.7333 132.61 33.9333 132.476 31.4 133.676C29.6667 134.476 26.3333 135.543 24.0667 135.943L19.6667 136.61L20.0667 107.276L20.3333 77.8098L31 73.4098C36.8667 71.0098 42.7333 68.8764 44.0667 68.8764C45.4 68.7431 50.3333 71.1431 55 74.2098ZM77 131.943C77 133.276 75.6667 133.81 73 133.81C70.6 133.676 69 133.01 69 131.81C69 130.743 70.6 130.076 73 130.076C75.5333 130.076 77 130.743 77 131.943ZM77 137.143C77 138.21 75.4 139.01 73 139.01C70.6 139.01 69 138.21 69 137.143C69 136.076 70.6 135.41 73 135.41C75.4 135.41 77 136.076 77 137.143ZM66.3333 139.943C66.3333 142.61 63.8 144.076 62.0667 142.343C61.2667 141.543 61.1333 140.343 61.5333 139.543C62.8667 137.41 66.3333 137.81 66.3333 139.943ZM85.5333 140.076C86.0667 141.543 85.4 142.076 83 142.076C80.8667 142.076 79.6667 141.276 79.6667 140.076C79.6667 139.01 80.8667 138.076 82.2 138.076C83.5333 138.076 85 139.01 85.5333 140.076ZM75.8 147.676C75.8 151.676 75.9333 151.81 77 149.01C78.0667 146.61 79.2667 146.076 83.9333 146.076C89.4 146.076 90.3333 146.743 100.333 156.743C108.333 164.743 110.333 167.41 108.2 167.41C106.6 167.41 102.733 164.21 98.4667 159.276L91.2667 151.143L83.1333 159.276L74.8667 167.41H59.8C46.4667 167.41 44.8667 167.143 46.3333 165.41C47.6667 163.81 51.2667 163.41 62.4667 163.41C70.4667 163.41 77 162.876 77 162.343C77 161.81 74.0667 158.343 70.3333 154.743C66.7333 151.143 63.6667 147.676 63.6667 147.01C63.6667 146.343 65.5333 146.076 67.6667 146.476C70.6 147.143 71.6667 146.876 71.6667 145.41C71.6667 144.343 72.6 143.41 73.6667 143.41C75 143.41 75.6667 144.876 75.8 147.676ZM27.1333 153.676C27.5333 156.343 27 156.743 23.5333 156.743C20.3333 156.743 19.5333 156.343 20.2 154.61C20.6 153.41 21 151.943 21 151.143C21 148.476 26.7333 150.743 27.1333 153.676ZM94.3333 161.276C94.3333 163.676 93.6667 164.343 91 164.343C88.3333 164.343 87.6667 163.676 87.6667 161.276C87.6667 158.743 88.3333 158.076 91 158.076C93.6667 158.076 94.3333 158.743 94.3333 161.276Z" fill="#43A7AE"/>
</svg>
