<svg width="210" height="216" viewBox="0 0 210 216" fill="none" xmlns="http://www.w3.org/2000/svg">
<path d="M56.8667 11.4098L46.4667 21.9431L46.0667 43.0098L45.6667 64.0764L33.9333 68.8764C27.4 71.5431 21.2667 74.6098 20.0667 75.8098C18.2 77.6764 17.9333 82.0764 17.9333 108.343V138.743L9.53333 147.676C-3.53334 161.276 -1.4 163.676 12.0667 150.343L23 139.41H30.6C36.6 139.41 38.2 139.81 38.7333 141.676C39.1333 143.01 39.4 142.076 39.5333 139.676C39.6667 136.876 40.3333 135.41 41.6667 135.41C42.7333 135.41 43.6667 136.343 43.6667 137.41C43.6667 138.743 45 139.41 48.2 139.41C52.2 139.41 53.9333 140.743 62.3333 150.076L71.9333 160.743H56.2H40.4667L32.0667 152.476L23.6667 144.21L15.4 152.21C10.7333 156.743 5.8 160.876 4.33333 161.543C1.93333 162.476 2.06666 162.61 5.4 163.143C7.93333 163.41 10.3333 162.476 13.1333 160.076C16.4667 157.41 17.6667 157.01 19.1333 158.21C20.3333 159.143 23 159.41 26.3333 158.876C31.1333 158.076 32.2 158.61 39.2667 164.343L47 170.743H61.6667C75.1333 170.743 76.7333 170.476 80.7333 167.543C84.0667 165.01 85.4 164.61 86.6 165.81C88.6 167.81 93.2667 167.943 95.2667 165.943C96.4667 164.743 97.9333 165.143 101 167.41C106.333 171.276 111.667 170.21 111.667 165.41C111.667 163.543 112.067 162.076 112.733 161.943C113.267 161.943 121.133 161.676 130.333 161.543C139.533 161.276 148.2 160.61 149.533 160.076C152.067 159.01 152.067 158.876 149.533 157.943C148.2 157.41 138.333 156.876 127.667 156.876L108.333 156.743L90.7333 139.143L73 121.41L63.9333 130.476C57.4 137.01 54.4667 139.01 53.4 137.943C52.3333 136.876 54.7333 133.543 62.0667 125.943L72.0667 115.41H81.8C90.7333 115.41 91.6667 115.676 91.6667 117.943C91.6667 119.41 92.3333 121.01 93.1333 121.543C94.3333 122.21 94.4667 120.743 94.0667 116.21C93.4 110.343 93.5333 110.076 96.6 110.076C99.2667 110.076 99.8 110.61 99.2667 112.743C98.6 115.143 99.2667 115.41 104.2 115.41C109.533 115.41 110.333 116.076 130.333 136.076C141.667 147.41 151.4 156.743 151.933 156.743C154.6 156.743 150.067 150.876 137.8 138.21C126.867 126.876 124.867 124.21 126.733 123.543C128.6 122.876 127.133 121.676 121 118.743C116.6 116.61 112.2 114.076 111.4 113.143C110.6 112.21 108.333 111.41 106.333 111.41C103.667 111.41 102.467 110.61 101.933 108.61C100.6 103.676 104.6 104.476 114.6 111.143C125.133 118.21 130.333 121.143 130.333 120.21C130.333 118.21 120.467 110.61 112.867 106.743L103.933 102.21L97.9333 104.476C94.6 105.81 91.4 107.276 90.8667 107.81C88.7333 109.81 88.0667 108.476 88.2 102.876C88.3333 97.0098 88.3333 97.0098 96.4667 93.0098L104.6 89.0098L116.467 96.8764C123 101.143 128.867 104.743 129.667 104.743C132.6 104.743 119.533 94.4764 111.8 90.7431C102.867 86.6098 103.667 86.4764 90.0667 92.0764C88.2 92.8764 87.9333 92.0764 88.3333 87.2764C88.7333 81.6764 89 81.4098 96.7333 77.5431L104.867 73.5431L113.933 79.5431C129.133 89.6764 130.333 90.4764 130.333 89.5431C130.333 87.5431 119.933 79.2764 112.733 75.4098L104.733 71.1431L97.4 73.9431C93.4 75.5431 89.6667 76.7431 89.1333 76.7431C88.7333 76.7431 88.3333 74.2098 88.3333 71.2764C88.3333 65.8098 88.4667 65.6764 96.4667 61.6764L104.6 57.6764L114.467 64.3431C119.933 67.9431 125.8 71.8098 127.667 72.7431C130.467 74.2098 130.333 73.6764 126.333 69.4098C123.8 66.7431 117.8 62.4764 113 60.0764L104.333 55.6764L96.4667 58.8764C92.0667 60.6098 88.3333 62.0764 88.2 62.0764C88.0667 62.0764 88.0667 59.5431 88.2 56.3431C88.6 51.0098 89 50.6098 96.6 46.4764L104.467 42.2098L116.333 50.0764C134.2 62.0764 135.4 60.7431 118.467 47.6764L109.933 41.0098L110.2 31.1431C110.467 23.2764 110.067 20.6098 108.067 18.4764C105.267 15.1431 74.4667 0.743094 70.3333 0.743094C68.4667 0.743094 63.5333 4.60976 56.8667 11.4098ZM95.4 15.8098L106.333 20.7431L106.2 29.1431V37.4098L95.2667 42.7431L84.3333 48.0764V79.6764L84.4667 111.143L77.4 111.676L70.3333 112.076V60.3431C70.3333 26.2098 69.9333 8.87643 69 9.40976C68.2 9.94309 67.6667 22.7431 67.6667 43.5431C67.6667 65.5431 67.2667 76.7431 66.3333 76.7431C65.4 76.7431 65 66.2098 65.2667 44.8764C65.5333 19.4098 65.2667 13.2764 64.0667 14.3431C62.7333 15.4098 62.3333 22.4764 62.3333 41.5431C62.3333 57.9431 61.8 67.4098 61 67.4098C60.2 67.4098 59.6667 58.2098 59.6667 42.6098C59.6667 26.4764 59.2667 18.2098 58.3333 18.7431C57.5333 19.2764 57 29.4098 57 44.8764C57 60.7431 56.4667 70.0764 55.6667 70.0764C54.8667 70.0764 54.3333 61.2764 54.3333 46.3431C54.2 29.4098 53.8 23.4098 52.8667 25.1431C52.0667 26.6098 51.6667 35.2764 51.9333 47.4098C52.2 60.3431 51.8 67.2764 51 67.0098C50.2 66.7431 49.5333 57.8098 49.2667 45.1431L49 23.6764L59.6667 13.8098L70.4667 3.94309L77.4 7.40976C81.2667 9.27643 89.2667 13.0098 95.4 15.8098ZM55 74.2098L63.6667 79.6764V99.9431V120.21L55.6667 128.076C50.3333 133.41 47.6667 135.276 47.6667 133.676C47.6667 132.476 46.8667 131.41 45.8 131.41C44.7333 131.41 43.6667 130.743 43.4 129.943C42.6 127.543 37 131.01 37 133.81C37 135.676 36.7333 135.81 35.6667 134.076C34.7333 132.61 33.9333 132.476 31.4 133.676C29.6667 134.476 26.3333 135.543 24.0667 135.943L19.6667 136.61L20.0667 107.276L20.3333 77.8098L31 73.4098C36.8667 71.0098 42.7333 68.8764 44.0667 68.8764C45.4 68.7431 50.3333 71.1431 55 74.2098ZM77 131.943C77 133.276 75.6667 133.81 73 133.81C70.6 133.676 69 133.01 69 131.81C69 130.743 70.6 130.076 73 130.076C75.5333 130.076 77 130.743 77 131.943ZM77 137.143C77 138.21 75.4 139.01 73 139.01C70.6 139.01 69 138.21 69 137.143C69 136.076 70.6 135.41 73 135.41C75.4 135.41 77 136.076 77 137.143ZM66.3333 139.943C66.3333 142.61 63.8 144.076 62.0667 142.343C61.2667 141.543 61.1333 140.343 61.5333 139.543C62.8667 137.41 66.3333 137.81 66.3333 139.943ZM85.5333 140.076C86.0667 141.543 85.4 142.076 83 142.076C80.8667 142.076 79.6667 141.276 79.6667 140.076C79.6667 139.01 80.8667 138.076 82.2 138.076C83.5333 138.076 85 139.01 85.5333 140.076ZM75.8 147.676C75.8 151.676 75.9333 151.81 77 149.01C78.0667 146.61 79.2667 146.076 83.9333 146.076C89.4 146.076 90.3333 146.743 100.333 156.743C108.333 164.743 110.333 167.41 108.2 167.41C106.6 167.41 102.733 164.21 98.4667 159.276L91.2667 151.143L83.1333 159.276L74.8667 167.41H59.8C46.4667 167.41 44.8667 167.143 46.3333 165.41C47.6667 163.81 51.2667 163.41 62.4667 163.41C70.4667 163.41 77 162.876 77 162.343C77 161.81 74.0667 158.343 70.3333 154.743C66.7333 151.143 63.6667 147.676 63.6667 147.01C63.6667 146.343 65.5333 146.076 67.6667 146.476C70.6 147.143 71.6667 146.876 71.6667 145.41C71.6667 144.343 72.6 143.41 73.6667 143.41C75 143.41 75.6667 144.876 75.8 147.676ZM27.1333 153.676C27.5333 156.343 27 156.743 23.5333 156.743C20.3333 156.743 19.5333 156.343 20.2 154.61C20.6 153.41 21 151.943 21 151.143C21 148.476 26.7333 150.743 27.1333 153.676ZM94.3333 161.276C94.3333 163.676 93.6667 164.343 91 164.343C88.3333 164.343 87.6667 163.676 87.6667 161.276C87.6667 158.743 88.3333 158.076 91 158.076C93.6667 158.076 94.3333 158.743 94.3333 161.276Z" fill="#43A7AE"/>
<path d="M103.667 97.2765C103.667 99.9431 118.6 107.41 123.8 107.276C127.933 107.276 127.4 106.743 117 101.41C104.333 94.8764 103.667 94.6098 103.667 97.2765Z" fill="#E4E2E5"/>
<g filter="url(#filter0_d_4_41)">
<path d="M10.9922 189.031L10.6719 189.016C10.6823 188.292 10.5391 187.422 10.2422 186.406C10.3672 186.37 10.4505 186.349 10.4922 186.344C10.6172 186.734 10.7135 187.018 10.7812 187.195C10.8542 187.367 10.9453 187.521 11.0547 187.656C11.1693 187.786 11.3255 187.904 11.5234 188.008C11.862 188.185 12.2526 188.344 12.6953 188.484C13.138 188.625 13.6146 188.695 14.125 188.695C14.5677 188.695 15.0104 188.586 15.4531 188.367C15.901 188.148 16.125 187.667 16.125 186.922C16.125 186.547 16.0599 186.224 15.9297 185.953C15.7995 185.682 15.6276 185.464 15.4141 185.297C15.2057 185.13 14.9609 184.982 14.6797 184.852C14.4036 184.721 14.0443 184.573 13.6016 184.406C12.987 184.182 12.4792 183.953 12.0781 183.719C11.6823 183.484 11.3672 183.195 11.1328 182.852C10.8984 182.508 10.7812 182.089 10.7812 181.594C10.7812 180.807 11.0703 180.154 11.6484 179.633C12.2266 179.107 13.0521 178.844 14.125 178.844C14.6719 178.844 15.2109 178.901 15.7422 179.016C15.9557 179.057 16.0885 179.078 16.1406 179.078C16.2969 179.078 16.4531 179.026 16.6094 178.922L16.6719 178.891C16.7135 178.891 16.7656 178.901 16.8281 178.922C16.8125 179.042 16.7969 179.161 16.7812 179.281C16.7708 179.396 16.7578 179.523 16.7422 179.664C16.7318 179.805 16.724 179.914 16.7188 179.992C16.7135 180.07 16.7083 180.122 16.7031 180.148C16.7708 180.779 16.8021 181.122 16.7969 181.18L16.5625 181.195C16.5208 180.664 16.3464 180.247 16.0391 179.945C15.7318 179.638 15.3854 179.43 15 179.32C14.6146 179.211 14.2448 179.156 13.8906 179.156C13.026 179.156 12.4531 179.383 12.1719 179.836C11.8958 180.284 11.7578 180.708 11.7578 181.109C11.7578 181.531 11.862 181.883 12.0703 182.164C12.2786 182.44 12.5365 182.659 12.8438 182.82C13.1562 182.977 13.5938 183.164 14.1562 183.383C14.7917 183.633 15.3021 183.865 15.6875 184.078C16.0729 184.286 16.4167 184.591 16.7188 184.992C17.0208 185.388 17.1719 185.88 17.1719 186.469C17.1719 186.969 17.0417 187.419 16.7812 187.82C16.5208 188.221 16.1302 188.539 15.6094 188.773C15.0885 189.008 14.4505 189.125 13.6953 189.125C12.9609 189.125 12.1979 189.018 11.4062 188.805C11.2656 188.773 11.1797 188.758 11.1484 188.758C11.013 188.758 10.9609 188.849 10.9922 189.031ZM19.4375 184.391L18.4766 184.82C18.4349 184.654 18.4141 184.531 18.4141 184.453C18.4141 184.188 18.5755 183.943 18.8984 183.719C19.2266 183.49 19.5938 183.305 20 183.164C20.4115 183.023 20.6979 182.953 20.8594 182.953C21 182.953 21.1745 183.016 21.3828 183.141C21.5911 183.266 21.7578 183.391 21.8828 183.516C21.9922 183.62 22.0755 183.724 22.1328 183.828C22.1953 183.927 22.25 184.086 22.2969 184.305C22.3438 184.523 22.3672 184.802 22.3672 185.141C22.3672 185.24 22.3542 185.589 22.3281 186.188L22.2969 186.773C22.276 187.055 22.2656 187.279 22.2656 187.445C22.2656 187.659 22.2943 187.888 22.3516 188.133C22.4036 188.383 22.5208 188.508 22.7031 188.508C22.9062 188.508 23.1771 188.432 23.5156 188.281V188.602L22.3672 189.062C22.138 189.141 22.0078 189.18 21.9766 189.18C21.8568 189.18 21.737 189.102 21.6172 188.945C21.5026 188.784 21.4089 188.594 21.3359 188.375C20.3724 188.911 19.6328 189.18 19.1172 189.18C18.7995 189.18 18.5599 189.089 18.3984 188.906C18.237 188.719 18.1562 188.44 18.1562 188.07C18.1562 187.716 18.1979 187.453 18.2812 187.281C18.3698 187.109 18.5104 186.974 18.7031 186.875C19.0938 186.677 19.5078 186.531 19.9453 186.438C20.3828 186.339 20.8411 186.255 21.3203 186.188L21.3594 185.227V184.969C21.3594 184.526 21.2318 184.177 20.9766 183.922C20.7266 183.661 20.4323 183.531 20.0938 183.531C19.9323 183.531 19.7682 183.578 19.6016 183.672C19.4401 183.76 19.3594 183.888 19.3594 184.055C19.3594 184.138 19.3854 184.25 19.4375 184.391ZM21.2891 188.086C21.2734 187.914 21.2891 187.424 21.3359 186.617C20.6484 186.57 20.0964 186.654 19.6797 186.867C19.263 187.081 19.0547 187.349 19.0547 187.672C19.0547 187.906 19.1172 188.128 19.2422 188.336C19.3724 188.544 19.5495 188.648 19.7734 188.648C20.0234 188.648 20.5286 188.461 21.2891 188.086ZM24.0625 183.594V183.125L25.1016 183.109C25.1068 182.203 25.1849 181.484 25.3359 180.953C25.487 180.422 25.7057 179.99 25.9922 179.656C26.2214 179.391 26.5078 179.148 26.8516 178.93C27.1953 178.706 27.5365 178.534 27.875 178.414C28.2135 178.294 28.4948 178.234 28.7188 178.234C29.0208 178.234 29.3203 178.289 29.6172 178.398C29.9141 178.503 30.0625 178.628 30.0625 178.773C30.0625 178.857 30.0052 178.982 29.8906 179.148C29.776 179.315 29.6667 179.398 29.5625 179.398L28.9375 179.18C28.5 179.018 28.1536 178.938 27.8984 178.938C27.487 178.938 27.1562 179.057 26.9062 179.297C26.6562 179.536 26.4661 179.961 26.3359 180.57C26.2057 181.18 26.1302 182.026 26.1094 183.109H28.2344V183.609L26.1094 183.625L26.0781 185.852C26.0781 186.747 26.0859 187.406 26.1016 187.828C26.1172 188.25 26.1615 188.497 26.2344 188.57C26.2812 188.607 26.3594 188.63 26.4688 188.641C26.5781 188.651 26.8958 188.664 27.4219 188.68V188.984C27.1146 188.974 26.5911 188.966 25.8516 188.961C25.1172 188.956 24.5026 188.953 24.0078 188.953V188.695C24.2839 188.68 24.4896 188.646 24.625 188.594C24.7656 188.536 24.8672 188.44 24.9297 188.305C24.9974 188.164 25.0391 187.966 25.0547 187.711C25.0755 187.451 25.0859 187.086 25.0859 186.617L25.1016 184.008C25.1016 183.82 25.0807 183.714 25.0391 183.688C24.9401 183.625 24.6146 183.594 24.0625 183.594ZM33.5234 184.938L29.6172 185.781C29.6432 186.271 29.6901 186.651 29.7578 186.922C29.8307 187.188 29.9714 187.458 30.1797 187.734C30.5807 188.26 31.0651 188.523 31.6328 188.523C31.8672 188.523 32.1172 188.479 32.3828 188.391C32.6484 188.302 32.9427 188.143 33.2656 187.914L33.4062 188.102C32.5 188.753 31.6953 189.078 30.9922 189.078C30.2474 189.078 29.6667 188.797 29.25 188.234C28.8333 187.672 28.625 187.026 28.625 186.297C28.625 185.552 28.7839 184.935 29.1016 184.445C29.4193 183.951 29.776 183.591 30.1719 183.367C30.5677 183.143 30.8672 183.031 31.0703 183.031C31.3047 183.031 31.5469 183.07 31.7969 183.148C32.0521 183.221 32.2995 183.365 32.5391 183.578C32.7839 183.792 32.987 184.083 33.1484 184.453C33.1953 184.531 33.2396 184.583 33.2812 184.609C33.3229 184.635 33.3984 184.648 33.5078 184.648L33.5234 184.938ZM29.6328 185.477L30.6562 185.258C30.6979 185.237 30.8542 185.195 31.125 185.133C31.401 185.07 31.5859 185.031 31.6797 185.016C31.9505 184.953 32.1224 184.909 32.1953 184.883C32.2682 184.857 32.3047 184.815 32.3047 184.758C32.3047 184.674 32.2422 184.534 32.1172 184.336C31.9922 184.133 31.8125 183.948 31.5781 183.781C31.349 183.615 31.0781 183.531 30.7656 183.531C30.375 183.531 30.0964 183.737 29.9297 184.148C29.7682 184.56 29.6693 185.003 29.6328 185.477ZM34.5938 179.227V178.953C35.25 178.958 35.6797 178.964 35.8828 178.969C36.0859 178.974 36.2552 178.979 36.3906 178.984C37.2656 178.984 37.8411 178.974 38.1172 178.953L38.1016 179.258C37.7422 179.289 37.474 179.333 37.2969 179.391C37.1198 179.443 36.9922 179.557 36.9141 179.734C36.8672 179.849 36.8333 180.135 36.8125 180.594C36.7917 181.052 36.7734 181.641 36.7578 182.359C36.737 183.167 36.7214 183.898 36.7109 184.555C36.7005 185.211 36.6953 185.862 36.6953 186.508C36.6953 187.096 36.7109 187.531 36.7422 187.812C36.7734 188.094 36.8255 188.271 36.8984 188.344C36.987 188.411 37.1328 188.461 37.3359 188.492C37.5443 188.523 37.9844 188.539 38.6562 188.539C39.3958 188.539 40.013 188.479 40.5078 188.359C41.0078 188.24 41.3828 188.112 41.6328 187.977C41.9661 187.773 42.1953 187.427 42.3203 186.938L42.5781 186.969C42.5469 187.182 42.4766 187.503 42.3672 187.93C42.2578 188.357 42.1302 188.745 41.9844 189.094C41.5365 189.042 41.1797 189.016 40.9141 189.016C40.7526 189.01 40.6016 189.005 40.4609 189C40.3255 189 40.1667 189 39.9844 189H34.5L34.4844 188.758C34.7917 188.695 35.0156 188.628 35.1562 188.555C35.2969 188.482 35.401 188.357 35.4688 188.18C35.5417 187.997 35.5859 187.727 35.6016 187.367C35.6224 187.008 35.6328 186.49 35.6328 185.812L35.6484 182.375C35.6589 181.599 35.6589 181.01 35.6484 180.609C35.638 180.208 35.6016 179.911 35.5391 179.719C35.4766 179.521 35.3776 179.393 35.2422 179.336C35.1068 179.273 34.8906 179.237 34.5938 179.227ZM48.3828 184.938L44.4766 185.781C44.5026 186.271 44.5495 186.651 44.6172 186.922C44.6901 187.188 44.8307 187.458 45.0391 187.734C45.4401 188.26 45.9245 188.523 46.4922 188.523C46.7266 188.523 46.9766 188.479 47.2422 188.391C47.5078 188.302 47.8021 188.143 48.125 187.914L48.2656 188.102C47.3594 188.753 46.5547 189.078 45.8516 189.078C45.1068 189.078 44.526 188.797 44.1094 188.234C43.6927 187.672 43.4844 187.026 43.4844 186.297C43.4844 185.552 43.6432 184.935 43.9609 184.445C44.2786 183.951 44.6354 183.591 45.0312 183.367C45.4271 183.143 45.7266 183.031 45.9297 183.031C46.1641 183.031 46.4062 183.07 46.6562 183.148C46.9115 183.221 47.1589 183.365 47.3984 183.578C47.6432 183.792 47.8464 184.083 48.0078 184.453C48.0547 184.531 48.099 184.583 48.1406 184.609C48.1823 184.635 48.2578 184.648 48.3672 184.648L48.3828 184.938ZM44.4922 185.477L45.5156 185.258C45.5573 185.237 45.7135 185.195 45.9844 185.133C46.2604 185.07 46.4453 185.031 46.5391 185.016C46.8099 184.953 46.9818 184.909 47.0547 184.883C47.1276 184.857 47.1641 184.815 47.1641 184.758C47.1641 184.674 47.1016 184.534 46.9766 184.336C46.8516 184.133 46.6719 183.948 46.4375 183.781C46.2083 183.615 45.9375 183.531 45.625 183.531C45.2344 183.531 44.9557 183.737 44.7891 184.148C44.6276 184.56 44.5286 185.003 44.4922 185.477ZM50.625 184.391L49.6641 184.82C49.6224 184.654 49.6016 184.531 49.6016 184.453C49.6016 184.188 49.763 183.943 50.0859 183.719C50.4141 183.49 50.7812 183.305 51.1875 183.164C51.599 183.023 51.8854 182.953 52.0469 182.953C52.1875 182.953 52.362 183.016 52.5703 183.141C52.7786 183.266 52.9453 183.391 53.0703 183.516C53.1797 183.62 53.263 183.724 53.3203 183.828C53.3828 183.927 53.4375 184.086 53.4844 184.305C53.5312 184.523 53.5547 184.802 53.5547 185.141C53.5547 185.24 53.5417 185.589 53.5156 186.188L53.4844 186.773C53.4635 187.055 53.4531 187.279 53.4531 187.445C53.4531 187.659 53.4818 187.888 53.5391 188.133C53.5911 188.383 53.7083 188.508 53.8906 188.508C54.0938 188.508 54.3646 188.432 54.7031 188.281V188.602L53.5547 189.062C53.3255 189.141 53.1953 189.18 53.1641 189.18C53.0443 189.18 52.9245 189.102 52.8047 188.945C52.6901 188.784 52.5964 188.594 52.5234 188.375C51.5599 188.911 50.8203 189.18 50.3047 189.18C49.987 189.18 49.7474 189.089 49.5859 188.906C49.4245 188.719 49.3438 188.44 49.3438 188.07C49.3438 187.716 49.3854 187.453 49.4688 187.281C49.5573 187.109 49.6979 186.974 49.8906 186.875C50.2812 186.677 50.6953 186.531 51.1328 186.438C51.5703 186.339 52.0286 186.255 52.5078 186.188L52.5469 185.227V184.969C52.5469 184.526 52.4193 184.177 52.1641 183.922C51.9141 183.661 51.6198 183.531 51.2812 183.531C51.1198 183.531 50.9557 183.578 50.7891 183.672C50.6276 183.76 50.5469 183.888 50.5469 184.055C50.5469 184.138 50.5729 184.25 50.625 184.391ZM52.4766 188.086C52.4609 187.914 52.4766 187.424 52.5234 186.617C51.8359 186.57 51.2839 186.654 50.8672 186.867C50.4505 187.081 50.2422 187.349 50.2422 187.672C50.2422 187.906 50.3047 188.128 50.4297 188.336C50.5599 188.544 50.737 188.648 50.9609 188.648C51.2109 188.648 51.7161 188.461 52.4766 188.086ZM55.1328 187.242L55.4062 187.258C55.4062 187.357 55.4896 187.518 55.6562 187.742C55.8281 187.966 56.0573 188.169 56.3438 188.352C56.6302 188.529 56.9427 188.617 57.2812 188.617C57.526 188.617 57.7708 188.565 58.0156 188.461C58.2604 188.357 58.3828 188.13 58.3828 187.781C58.3828 187.417 58.2552 187.122 58 186.898C57.7448 186.68 57.4557 186.49 57.1328 186.328L56.5469 186.055C56.2031 185.878 55.9297 185.69 55.7266 185.492C55.5234 185.299 55.4219 185.049 55.4219 184.742C55.4219 184.503 55.5078 184.253 55.6797 183.992C55.8516 183.727 56.099 183.508 56.4219 183.336C56.75 183.164 57.1198 183.078 57.5312 183.078C57.7812 183.078 58.1979 183.117 58.7812 183.195L59.0391 184.523H58.7656C58.7188 184.341 58.6094 184.169 58.4375 184.008C58.2708 183.841 58.0729 183.701 57.8438 183.586C57.6198 183.471 57.4271 183.414 57.2656 183.414C56.9896 183.414 56.7656 183.5 56.5938 183.672C56.4219 183.844 56.3359 184.062 56.3359 184.328C56.3359 184.542 56.3984 184.711 56.5234 184.836C56.6484 184.966 56.8854 185.117 57.2344 185.289L57.7109 185.516C58.1432 185.719 58.513 185.956 58.8203 186.227C59.1276 186.503 59.2812 186.883 59.2812 187.367C59.2812 187.549 59.2422 187.745 59.1641 187.953C59.0911 188.156 58.9792 188.302 58.8281 188.391C58.3958 188.667 58.0391 188.846 57.7578 188.93C57.4766 189.008 57.1901 189.047 56.8984 189.047C56.7943 189.047 56.6458 189.034 56.4531 189.008C56.2604 188.982 56.125 188.961 56.0469 188.945C55.9688 188.93 55.8333 188.893 55.6406 188.836C55.4479 188.779 55.3229 188.742 55.2656 188.727C55.3073 188.518 55.3281 188.37 55.3281 188.281C55.3281 188.151 55.3047 187.974 55.2578 187.75C55.2161 187.521 55.1745 187.352 55.1328 187.242ZM65.3984 184.938L61.4922 185.781C61.5182 186.271 61.5651 186.651 61.6328 186.922C61.7057 187.188 61.8464 187.458 62.0547 187.734C62.4557 188.26 62.9401 188.523 63.5078 188.523C63.7422 188.523 63.9922 188.479 64.2578 188.391C64.5234 188.302 64.8177 188.143 65.1406 187.914L65.2812 188.102C64.375 188.753 63.5703 189.078 62.8672 189.078C62.1224 189.078 61.5417 188.797 61.125 188.234C60.7083 187.672 60.5 187.026 60.5 186.297C60.5 185.552 60.6589 184.935 60.9766 184.445C61.2943 183.951 61.651 183.591 62.0469 183.367C62.4427 183.143 62.7422 183.031 62.9453 183.031C63.1797 183.031 63.4219 183.07 63.6719 183.148C63.9271 183.221 64.1745 183.365 64.4141 183.578C64.6589 183.792 64.862 184.083 65.0234 184.453C65.0703 184.531 65.1146 184.583 65.1562 184.609C65.1979 184.635 65.2734 184.648 65.3828 184.648L65.3984 184.938ZM61.5078 185.477L62.5312 185.258C62.5729 185.237 62.7292 185.195 63 185.133C63.276 185.07 63.4609 185.031 63.5547 185.016C63.8255 184.953 63.9974 184.909 64.0703 184.883C64.1432 184.857 64.1797 184.815 64.1797 184.758C64.1797 184.674 64.1172 184.534 63.9922 184.336C63.8672 184.133 63.6875 183.948 63.4531 183.781C63.224 183.615 62.9531 183.531 62.6406 183.531C62.25 183.531 61.9714 183.737 61.8047 184.148C61.6432 184.56 61.5443 185.003 61.5078 185.477ZM66.0391 203.516L65.1406 202.234C64.4531 202.234 63.8828 202.201 63.4297 202.133L63.4141 204.008C63.4141 204.404 63.4245 204.846 63.4453 205.336C63.4714 205.826 63.526 206.172 63.6094 206.375C63.651 206.5 63.7214 206.589 63.8203 206.641C63.9245 206.693 64.1536 206.766 64.5078 206.859C64.6224 206.885 64.6797 206.927 64.6797 206.984C64.6797 207.099 64.6432 207.156 64.5703 207.156C64.487 207.156 64.2682 207.13 63.9141 207.078C63.4661 207.036 63.1927 207.016 63.0938 207.016C62.5885 207.016 62.0677 207.052 61.5312 207.125C61.4948 207.125 61.4505 207.13 61.3984 207.141C61.2943 207.141 61.2422 207.094 61.2422 207C61.2422 206.948 61.2604 206.909 61.2969 206.883C61.3385 206.857 61.4271 206.826 61.5625 206.789C61.7969 206.727 61.9661 206.633 62.0703 206.508C62.1745 206.378 62.25 206.128 62.2969 205.758C62.3438 205.383 62.3698 204.784 62.375 203.961V200.508C62.3854 199.664 62.3802 199.044 62.3594 198.648C62.3438 198.253 62.3021 197.964 62.2344 197.781C62.1667 197.594 62.0625 197.469 61.9219 197.406C61.7812 197.344 61.5599 197.294 61.2578 197.258L61.2891 197C61.5651 197.01 61.9167 197.016 62.3438 197.016C62.4688 197.016 62.9219 196.984 63.7031 196.922C64.4896 196.854 64.987 196.82 65.1953 196.82C65.7422 196.82 66.2344 196.896 66.6719 197.047C67.1094 197.198 67.474 197.398 67.7656 197.648C68.0625 197.898 68.2865 198.185 68.4375 198.508C68.5885 198.826 68.6641 199.154 68.6641 199.492C68.6641 199.841 68.5859 200.18 68.4297 200.508C68.2734 200.836 68.0365 201.135 67.7188 201.406C67.401 201.672 66.9922 201.898 66.4922 202.086L66.8438 202.617C67.3333 203.357 67.7396 203.956 68.0625 204.414C68.3854 204.867 68.7318 205.305 69.1016 205.727C69.4766 206.148 69.8568 206.492 70.2422 206.758C70.6328 207.018 71.013 207.164 71.3828 207.195C71.4818 207.211 71.5312 207.263 71.5312 207.352C71.5312 207.398 71.5078 207.432 71.4609 207.453C71.4141 207.479 71.3021 207.492 71.125 207.492C70.6198 207.492 70.1328 207.38 69.6641 207.156C69.1953 206.938 68.75 206.641 68.3281 206.266C67.9062 205.891 67.5312 205.497 67.2031 205.086C66.875 204.674 66.487 204.151 66.0391 203.516ZM63.4766 201.688C63.8255 201.771 64.2474 201.812 64.7422 201.812C64.9922 201.812 65.2552 201.794 65.5312 201.758C65.8125 201.721 66.099 201.641 66.3906 201.516C66.6875 201.391 66.9427 201.18 67.1562 200.883C67.3698 200.586 67.4766 200.188 67.4766 199.688C67.4766 199.333 67.3828 198.964 67.1953 198.578C67.013 198.188 66.7292 197.854 66.3438 197.578C65.9583 197.297 65.4896 197.156 64.9375 197.156C64.7083 197.156 64.4479 197.188 64.1562 197.25C63.8698 197.307 63.7031 197.401 63.6562 197.531C63.5365 197.786 63.4766 199.172 63.4766 201.688ZM76.4609 202.938L72.5547 203.781C72.5807 204.271 72.6276 204.651 72.6953 204.922C72.7682 205.188 72.9089 205.458 73.1172 205.734C73.5182 206.26 74.0026 206.523 74.5703 206.523C74.8047 206.523 75.0547 206.479 75.3203 206.391C75.5859 206.302 75.8802 206.143 76.2031 205.914L76.3438 206.102C75.4375 206.753 74.6328 207.078 73.9297 207.078C73.1849 207.078 72.6042 206.797 72.1875 206.234C71.7708 205.672 71.5625 205.026 71.5625 204.297C71.5625 203.552 71.7214 202.935 72.0391 202.445C72.3568 201.951 72.7135 201.591 73.1094 201.367C73.5052 201.143 73.8047 201.031 74.0078 201.031C74.2422 201.031 74.4844 201.07 74.7344 201.148C74.9896 201.221 75.237 201.365 75.4766 201.578C75.7214 201.792 75.9245 202.083 76.0859 202.453C76.1328 202.531 76.1771 202.583 76.2188 202.609C76.2604 202.635 76.3359 202.648 76.4453 202.648L76.4609 202.938ZM72.5703 203.477L73.5938 203.258C73.6354 203.237 73.7917 203.195 74.0625 203.133C74.3385 203.07 74.5234 203.031 74.6172 203.016C74.888 202.953 75.0599 202.909 75.1328 202.883C75.2057 202.857 75.2422 202.815 75.2422 202.758C75.2422 202.674 75.1797 202.534 75.0547 202.336C74.9297 202.133 74.75 201.948 74.5156 201.781C74.2865 201.615 74.0156 201.531 73.7031 201.531C73.3125 201.531 73.0339 201.737 72.8672 202.148C72.7057 202.56 72.6068 203.003 72.5703 203.477ZM78.7031 202.391L77.7422 202.82C77.7005 202.654 77.6797 202.531 77.6797 202.453C77.6797 202.188 77.8411 201.943 78.1641 201.719C78.4922 201.49 78.8594 201.305 79.2656 201.164C79.6771 201.023 79.9635 200.953 80.125 200.953C80.2656 200.953 80.4401 201.016 80.6484 201.141C80.8568 201.266 81.0234 201.391 81.1484 201.516C81.2578 201.62 81.3411 201.724 81.3984 201.828C81.4609 201.927 81.5156 202.086 81.5625 202.305C81.6094 202.523 81.6328 202.802 81.6328 203.141C81.6328 203.24 81.6198 203.589 81.5938 204.188L81.5625 204.773C81.5417 205.055 81.5312 205.279 81.5312 205.445C81.5312 205.659 81.5599 205.888 81.6172 206.133C81.6693 206.383 81.7865 206.508 81.9688 206.508C82.1719 206.508 82.4427 206.432 82.7812 206.281V206.602L81.6328 207.062C81.4036 207.141 81.2734 207.18 81.2422 207.18C81.1224 207.18 81.0026 207.102 80.8828 206.945C80.7682 206.784 80.6745 206.594 80.6016 206.375C79.638 206.911 78.8984 207.18 78.3828 207.18C78.0651 207.18 77.8255 207.089 77.6641 206.906C77.5026 206.719 77.4219 206.44 77.4219 206.07C77.4219 205.716 77.4635 205.453 77.5469 205.281C77.6354 205.109 77.776 204.974 77.9688 204.875C78.3594 204.677 78.7734 204.531 79.2109 204.438C79.6484 204.339 80.1068 204.255 80.5859 204.188L80.625 203.227V202.969C80.625 202.526 80.4974 202.177 80.2422 201.922C79.9922 201.661 79.6979 201.531 79.3594 201.531C79.1979 201.531 79.0339 201.578 78.8672 201.672C78.7057 201.76 78.625 201.888 78.625 202.055C78.625 202.138 78.651 202.25 78.7031 202.391ZM80.5547 206.086C80.5391 205.914 80.5547 205.424 80.6016 204.617C79.9141 204.57 79.362 204.654 78.9453 204.867C78.5286 205.081 78.3203 205.349 78.3203 205.672C78.3203 205.906 78.3828 206.128 78.5078 206.336C78.638 206.544 78.8151 206.648 79.0391 206.648C79.2891 206.648 79.7943 206.461 80.5547 206.086ZM82.9922 207.031V206.789C83.3828 206.721 83.6589 206.604 83.8203 206.438C83.9818 206.271 84.0833 206.016 84.125 205.672C84.151 205.495 84.1797 205.089 84.2109 204.453C84.2422 203.812 84.2708 203.081 84.2969 202.258C84.3229 201.435 84.3359 200.695 84.3359 200.039C84.3359 198.664 84.2656 197.88 84.125 197.688C84.0365 197.557 83.8594 197.492 83.5938 197.492C83.5312 197.492 83.4818 197.495 83.4453 197.5C83.4089 197.505 83.375 197.51 83.3438 197.516C83.3125 197.521 83.2786 197.526 83.2422 197.531V197.289C84.237 196.872 84.9375 196.521 85.3438 196.234H85.5781C85.4167 196.849 85.3151 197.964 85.2734 199.578L85.2109 203.336C85.2109 205.096 85.25 206.094 85.3281 206.328C85.375 206.464 85.5312 206.568 85.7969 206.641C86.0625 206.708 86.2995 206.753 86.5078 206.773V207.062C85.487 206.99 84.7995 206.953 84.4453 206.953C83.9714 206.953 83.487 206.979 82.9922 207.031ZM98.9453 204.711H99.1875C99.1042 205.253 99.013 205.703 98.9141 206.062C98.8151 206.417 98.6875 206.755 98.5312 207.078C98.3594 207.062 98.125 207.049 97.8281 207.039C97.5312 207.034 97.1146 207.031 96.5781 207.031C96.2552 207.031 95.9089 207.026 95.5391 207.016C95.1693 207.005 95.0104 207 95.0625 207C94.724 207 94.3281 207.003 93.875 207.008C93.4271 207.018 92.8854 207.034 92.25 207.055C91.6146 207.076 91.1484 207.094 90.8516 207.109L90.8672 206.844C91.0286 206.807 91.1927 206.768 91.3594 206.727C91.526 206.68 91.638 206.63 91.6953 206.578C91.7578 206.526 91.8021 206.464 91.8281 206.391C91.8542 206.312 91.8802 206.174 91.9062 205.977C91.9375 205.779 91.9661 205.422 91.9922 204.906C92.0234 204.385 92.0469 203.802 92.0625 203.156C92.0833 202.51 92.0911 202.107 92.0859 201.945L92.0312 199.461C92.0156 198.69 91.9844 198.169 91.9375 197.898C91.8958 197.628 91.8125 197.448 91.6875 197.359C91.5625 197.271 91.3255 197.193 90.9766 197.125C90.9766 197.042 90.9818 196.974 90.9922 196.922H96C96.5625 196.922 97.4115 196.901 98.5469 196.859C98.5208 197.307 98.474 197.755 98.4062 198.203C98.3385 198.651 98.2526 198.875 98.1484 198.875C98.0182 198.875 97.9531 198.836 97.9531 198.758C97.9531 198.727 97.9635 198.628 97.9844 198.461C98.0052 198.294 98.0156 198.198 98.0156 198.172C98.0156 197.792 97.7865 197.549 97.3281 197.445C96.875 197.341 96.3307 197.289 95.6953 197.289C94.9297 197.289 94.1302 197.341 93.2969 197.445C93.2031 198.31 93.1562 199.036 93.1562 199.625C93.1562 200.01 93.1589 200.453 93.1641 200.953C93.1693 201.453 93.1719 201.688 93.1719 201.656C93.2969 201.667 93.6797 201.672 94.3203 201.672C95.4245 201.672 96.1823 201.651 96.5938 201.609C96.8281 201.583 96.9844 201.552 97.0625 201.516C97.1458 201.479 97.224 201.388 97.2969 201.242C97.3698 201.091 97.4505 200.862 97.5391 200.555L97.7656 200.57C97.7656 201.112 97.763 201.596 97.7578 202.023C97.7578 202.451 97.7552 202.94 97.75 203.492H97.4766C97.4609 203.013 97.388 202.68 97.2578 202.492C97.1328 202.305 96.888 202.185 96.5234 202.133C96.1589 202.081 95.5104 202.055 94.5781 202.055C93.9792 202.055 93.5104 202.081 93.1719 202.133L93.1406 203.242C93.1042 204.596 93.151 205.641 93.2812 206.375C93.375 206.401 93.487 206.43 93.6172 206.461C93.7474 206.492 93.8698 206.518 93.9844 206.539C94.1042 206.555 94.2734 206.573 94.4922 206.594C94.7109 206.609 94.9844 206.617 95.3125 206.617C96.1302 206.617 96.7708 206.557 97.2344 206.438C97.7031 206.318 98.0599 206.125 98.3047 205.859C98.5547 205.594 98.7682 205.211 98.9453 204.711ZM99.9922 205.242L100.266 205.258C100.266 205.357 100.349 205.518 100.516 205.742C100.688 205.966 100.917 206.169 101.203 206.352C101.49 206.529 101.802 206.617 102.141 206.617C102.385 206.617 102.63 206.565 102.875 206.461C103.12 206.357 103.242 206.13 103.242 205.781C103.242 205.417 103.115 205.122 102.859 204.898C102.604 204.68 102.315 204.49 101.992 204.328L101.406 204.055C101.062 203.878 100.789 203.69 100.586 203.492C100.383 203.299 100.281 203.049 100.281 202.742C100.281 202.503 100.367 202.253 100.539 201.992C100.711 201.727 100.958 201.508 101.281 201.336C101.609 201.164 101.979 201.078 102.391 201.078C102.641 201.078 103.057 201.117 103.641 201.195L103.898 202.523H103.625C103.578 202.341 103.469 202.169 103.297 202.008C103.13 201.841 102.932 201.701 102.703 201.586C102.479 201.471 102.286 201.414 102.125 201.414C101.849 201.414 101.625 201.5 101.453 201.672C101.281 201.844 101.195 202.062 101.195 202.328C101.195 202.542 101.258 202.711 101.383 202.836C101.508 202.966 101.745 203.117 102.094 203.289L102.57 203.516C103.003 203.719 103.372 203.956 103.68 204.227C103.987 204.503 104.141 204.883 104.141 205.367C104.141 205.549 104.102 205.745 104.023 205.953C103.951 206.156 103.839 206.302 103.688 206.391C103.255 206.667 102.898 206.846 102.617 206.93C102.336 207.008 102.049 207.047 101.758 207.047C101.654 207.047 101.505 207.034 101.312 207.008C101.12 206.982 100.984 206.961 100.906 206.945C100.828 206.93 100.693 206.893 100.5 206.836C100.307 206.779 100.182 206.742 100.125 206.727C100.167 206.518 100.188 206.37 100.188 206.281C100.188 206.151 100.164 205.974 100.117 205.75C100.076 205.521 100.034 205.352 99.9922 205.242ZM105.867 204.758L105.906 201.719C105.667 201.688 105.388 201.672 105.07 201.672C105.081 201.63 105.086 201.565 105.086 201.477C105.539 201.201 105.893 200.938 106.148 200.688C106.404 200.438 106.706 200.083 107.055 199.625L106.977 201.031C107.424 201.073 107.914 201.094 108.445 201.094C108.701 201.094 108.979 201.089 109.281 201.078L109.266 201.562C108.995 201.594 108.716 201.609 108.43 201.609C108.404 201.609 108.302 201.607 108.125 201.602C107.948 201.591 107.672 201.578 107.297 201.562C107.198 201.562 107.122 201.573 107.07 201.594C107.023 201.609 106.99 201.643 106.969 201.695C106.953 201.747 106.94 201.846 106.93 201.992C106.924 202.138 106.919 202.292 106.914 202.453L106.875 204.891C106.865 205.359 106.917 205.747 107.031 206.055C107.151 206.357 107.435 206.508 107.883 206.508C108.055 206.508 108.266 206.471 108.516 206.398C108.771 206.32 109.062 206.206 109.391 206.055C109.401 206.096 109.406 206.128 109.406 206.148C109.411 206.169 109.417 206.193 109.422 206.219C109.24 206.417 108.904 206.612 108.414 206.805C107.93 206.997 107.492 207.094 107.102 207.094C106.763 207.094 106.471 206.979 106.227 206.75C105.987 206.516 105.867 206.115 105.867 205.547V204.758ZM111.328 202.391L110.367 202.82C110.326 202.654 110.305 202.531 110.305 202.453C110.305 202.188 110.466 201.943 110.789 201.719C111.117 201.49 111.484 201.305 111.891 201.164C112.302 201.023 112.589 200.953 112.75 200.953C112.891 200.953 113.065 201.016 113.273 201.141C113.482 201.266 113.648 201.391 113.773 201.516C113.883 201.62 113.966 201.724 114.023 201.828C114.086 201.927 114.141 202.086 114.188 202.305C114.234 202.523 114.258 202.802 114.258 203.141C114.258 203.24 114.245 203.589 114.219 204.188L114.188 204.773C114.167 205.055 114.156 205.279 114.156 205.445C114.156 205.659 114.185 205.888 114.242 206.133C114.294 206.383 114.411 206.508 114.594 206.508C114.797 206.508 115.068 206.432 115.406 206.281V206.602L114.258 207.062C114.029 207.141 113.898 207.18 113.867 207.18C113.747 207.18 113.628 207.102 113.508 206.945C113.393 206.784 113.299 206.594 113.227 206.375C112.263 206.911 111.523 207.18 111.008 207.18C110.69 207.18 110.451 207.089 110.289 206.906C110.128 206.719 110.047 206.44 110.047 206.07C110.047 205.716 110.089 205.453 110.172 205.281C110.26 205.109 110.401 204.974 110.594 204.875C110.984 204.677 111.398 204.531 111.836 204.438C112.273 204.339 112.732 204.255 113.211 204.188L113.25 203.227V202.969C113.25 202.526 113.122 202.177 112.867 201.922C112.617 201.661 112.323 201.531 111.984 201.531C111.823 201.531 111.659 201.578 111.492 201.672C111.331 201.76 111.25 201.888 111.25 202.055C111.25 202.138 111.276 202.25 111.328 202.391ZM113.18 206.086C113.164 205.914 113.18 205.424 113.227 204.617C112.539 204.57 111.987 204.654 111.57 204.867C111.154 205.081 110.945 205.349 110.945 205.672C110.945 205.906 111.008 206.128 111.133 206.336C111.263 206.544 111.44 206.648 111.664 206.648C111.914 206.648 112.419 206.461 113.18 206.086ZM116.539 204.758L116.578 201.719C116.339 201.688 116.06 201.672 115.742 201.672C115.753 201.63 115.758 201.565 115.758 201.477C116.211 201.201 116.565 200.938 116.82 200.688C117.076 200.438 117.378 200.083 117.727 199.625L117.648 201.031C118.096 201.073 118.586 201.094 119.117 201.094C119.372 201.094 119.651 201.089 119.953 201.078L119.938 201.562C119.667 201.594 119.388 201.609 119.102 201.609C119.076 201.609 118.974 201.607 118.797 201.602C118.62 201.591 118.344 201.578 117.969 201.562C117.87 201.562 117.794 201.573 117.742 201.594C117.695 201.609 117.661 201.643 117.641 201.695C117.625 201.747 117.612 201.846 117.602 201.992C117.596 202.138 117.591 202.292 117.586 202.453L117.547 204.891C117.536 205.359 117.589 205.747 117.703 206.055C117.823 206.357 118.107 206.508 118.555 206.508C118.727 206.508 118.938 206.471 119.188 206.398C119.443 206.32 119.734 206.206 120.062 206.055C120.073 206.096 120.078 206.128 120.078 206.148C120.083 206.169 120.089 206.193 120.094 206.219C119.911 206.417 119.576 206.612 119.086 206.805C118.602 206.997 118.164 207.094 117.773 207.094C117.435 207.094 117.143 206.979 116.898 206.75C116.659 206.516 116.539 206.115 116.539 205.547V204.758ZM125.602 202.938L121.695 203.781C121.721 204.271 121.768 204.651 121.836 204.922C121.909 205.188 122.049 205.458 122.258 205.734C122.659 206.26 123.143 206.523 123.711 206.523C123.945 206.523 124.195 206.479 124.461 206.391C124.727 206.302 125.021 206.143 125.344 205.914L125.484 206.102C124.578 206.753 123.773 207.078 123.07 207.078C122.326 207.078 121.745 206.797 121.328 206.234C120.911 205.672 120.703 205.026 120.703 204.297C120.703 203.552 120.862 202.935 121.18 202.445C121.497 201.951 121.854 201.591 122.25 201.367C122.646 201.143 122.945 201.031 123.148 201.031C123.383 201.031 123.625 201.07 123.875 201.148C124.13 201.221 124.378 201.365 124.617 201.578C124.862 201.792 125.065 202.083 125.227 202.453C125.273 202.531 125.318 202.583 125.359 202.609C125.401 202.635 125.477 202.648 125.586 202.648L125.602 202.938ZM121.711 203.477L122.734 203.258C122.776 203.237 122.932 203.195 123.203 203.133C123.479 203.07 123.664 203.031 123.758 203.016C124.029 202.953 124.201 202.909 124.273 202.883C124.346 202.857 124.383 202.815 124.383 202.758C124.383 202.674 124.32 202.534 124.195 202.336C124.07 202.133 123.891 201.948 123.656 201.781C123.427 201.615 123.156 201.531 122.844 201.531C122.453 201.531 122.174 201.737 122.008 202.148C121.846 202.56 121.747 203.003 121.711 203.477Z" fill="#7274FF"/>
</g>
<defs>
<filter id="filter0_d_4_41" x="10.2422" y="178.234" width="124.559" height="37.4578" filterUnits="userSpaceOnUse" color-interpolation-filters="sRGB">
<feFlood flood-opacity="0" result="BackgroundImageFix"/>
<feColorMatrix in="SourceAlpha" type="matrix" values="0 0 0 0 0 0 0 0 0 0 0 0 0 0 0 0 0 0 127 0" result="hardAlpha"/>
<feOffset dx="6" dy="5"/>
<feGaussianBlur stdDeviation="1.6"/>
<feComposite in2="hardAlpha" operator="out"/>
<feColorMatrix type="matrix" values="0 0 0 0 0 0 0 0 0 0 0 0 0 0 0 0 0 0 0.25 0"/>
<feBlend mode="normal" in2="BackgroundImageFix" result="effect1_dropShadow_4_41"/>
<feBlend mode="normal" in="SourceGraphic" in2="effect1_dropShadow_4_41" result="shape"/>
</filter>
</defs>
</svg>
